<svg xmlns="http://www.w3.org/2000/svg" viewBox="0 0 720 320" font-family="-apple-system,Segoe UI,Roboto,Helvetica,Arial,sans-serif">
<rect x="0" y="0" width="720" height="320" fill="#ffffff"/>
<text x="44" y="24" font-size="15" font-weight="600" fill="#2d3436">Lines changed per year</text>
<rect x="44" y="31" width="11" height="11" rx="2" fill="#b0bec5"/>
<text x="60" y="40" font-size="11" fill="#636e72">maintenance</text>
<rect x="146.0" y="31" width="11" height="11" rx="2" fill="#3d6fd6"/>
<text x="162.0" y="40" font-size="11" fill="#636e72">2026 · fixing years-old issues</text>
<rect x="362.0" y="31" width="11" height="11" rx="2" fill="#f0932b"/>
<text x="378.0" y="40" font-size="11" fill="#636e72">2026 · polish</text>
<line x1="44" y1="274.0" x2="704" y2="274.0" stroke="#dfe6e9" stroke-width="1"/>
<rect x="51.8" y="235.3" width="25.6" height="38.7" rx="2" fill="#b0bec5"/>
<text x="64.6" y="231.3" font-size="9" fill="#95a5a6" text-anchor="middle">740</text>
<text x="64.6" y="290.0" font-size="9" fill="#95a5a6" text-anchor="middle">2011</text>
<rect x="93.1" y="273.7" width="25.6" height="0.3" rx="2" fill="#b0bec5"/>
<text x="105.9" y="269.7" font-size="9" fill="#95a5a6" text-anchor="middle">5</text>
<text x="105.9" y="290.0" font-size="9" fill="#95a5a6" text-anchor="middle">2012</text>
<rect x="134.3" y="258.0" width="25.6" height="16.0" rx="2" fill="#b0bec5"/>
<text x="147.1" y="254.0" font-size="9" fill="#95a5a6" text-anchor="middle">307</text>
<text x="147.1" y="290.0" font-size="9" fill="#95a5a6" text-anchor="middle">2013</text>
<rect x="175.6" y="267.1" width="25.6" height="6.9" rx="2" fill="#b0bec5"/>
<text x="188.4" y="263.1" font-size="9" fill="#95a5a6" text-anchor="middle">132</text>
<text x="188.4" y="290.0" font-size="9" fill="#95a5a6" text-anchor="middle">2014</text>
<rect x="216.8" y="250.8" width="25.6" height="23.2" rx="2" fill="#b0bec5"/>
<text x="229.6" y="246.8" font-size="9" fill="#95a5a6" text-anchor="middle">443</text>
<text x="229.6" y="290.0" font-size="9" fill="#95a5a6" text-anchor="middle">2015</text>
<rect x="258.1" y="268.4" width="25.6" height="5.6" rx="2" fill="#b0bec5"/>
<text x="270.9" y="264.4" font-size="9" fill="#95a5a6" text-anchor="middle">108</text>
<text x="270.9" y="290.0" font-size="9" fill="#95a5a6" text-anchor="middle">2016</text>
<rect x="299.3" y="219.4" width="25.6" height="54.6" rx="2" fill="#b0bec5"/>
<text x="312.1" y="215.4" font-size="9" fill="#95a5a6" text-anchor="middle">1044</text>
<text x="312.1" y="290.0" font-size="9" fill="#95a5a6" text-anchor="middle">2017</text>
<rect x="340.6" y="253.2" width="25.6" height="20.8" rx="2" fill="#b0bec5"/>
<text x="353.4" y="249.2" font-size="9" fill="#95a5a6" text-anchor="middle">398</text>
<text x="353.4" y="290.0" font-size="9" fill="#95a5a6" text-anchor="middle">2018</text>
<rect x="381.8" y="258.9" width="25.6" height="15.1" rx="2" fill="#b0bec5"/>
<text x="394.6" y="254.9" font-size="9" fill="#95a5a6" text-anchor="middle">288</text>
<text x="394.6" y="290.0" font-size="9" fill="#95a5a6" text-anchor="middle">2019</text>
<rect x="423.1" y="273.8" width="25.6" height="0.2" rx="2" fill="#b0bec5"/>
<text x="435.9" y="269.8" font-size="9" fill="#95a5a6" text-anchor="middle">4</text>
<text x="435.9" y="290.0" font-size="9" fill="#95a5a6" text-anchor="middle">2020</text>
<text x="477.1" y="290.0" font-size="9" fill="#95a5a6" text-anchor="middle">2021</text>
<text x="518.4" y="290.0" font-size="9" fill="#95a5a6" text-anchor="middle">2022</text>
<text x="559.6" y="290.0" font-size="9" fill="#95a5a6" text-anchor="middle">2023</text>
<rect x="588.1" y="210.4" width="25.6" height="63.6" rx="2" fill="#b0bec5"/>
<text x="600.9" y="206.4" font-size="9" fill="#95a5a6" text-anchor="middle">1217</text>
<text x="600.9" y="290.0" font-size="9" fill="#95a5a6" text-anchor="middle">2024</text>
<rect x="629.3" y="272.7" width="25.6" height="1.3" rx="2" fill="#b0bec5"/>
<text x="642.1" y="268.7" font-size="9" fill="#95a5a6" text-anchor="middle">24</text>
<text x="642.1" y="290.0" font-size="9" fill="#95a5a6" text-anchor="middle">2025</text>
<text x="518.4" y="268.0" font-size="9" fill="#b2bec3" text-anchor="middle" font-style="italic">dormant</text>
<rect x="670.6" y="159.6" width="25.6" height="114.4" rx="2" fill="#3d6fd6"/>
<text x="683.4" y="219.8" font-size="10" fill="#ffffff" text-anchor="middle" font-weight="600">2188</text>
<rect x="670.6" y="56.0" width="25.6" height="103.6" rx="2" fill="#f0932b"/>
<text x="683.4" y="110.8" font-size="10" fill="#ffffff" text-anchor="middle" font-weight="600">1982</text>
<text x="683.4" y="290.0" font-size="9" fill="#2d3436" text-anchor="middle" font-weight="600">2026</text>
<text x="683.4" y="51.0" font-size="9" fill="#636e72" text-anchor="middle">4170</text>
</svg>